<svg id="Layer_1" data-name="Layer 1" xmlns="http://www.w3.org/2000/svg" viewBox="0 0 970.05 182.01"><defs><style>.cls-1{font-size:115.97px;}.cls-1,.cls-2{fill:#6d6d6c;font-family:NanumSquareB, NanumSquare;}.cls-2{font-size:63.17px;}.cls-3{letter-spacing:0.01em;}.cls-4{fill:#02689b;fill-rule:evenodd;}</style></defs><text class="cls-1" transform="translate(289.4 94.81) scale(1.09 1)">HANJUN FR</text><text class="cls-2" transform="translate(289.4 166.1) scale(1.09 1)"><tspan class="cls-3">F</tspan><tspan x="36.83" y="0">UTURE RESOURCES</tspan></text><path class="cls-4" d="M-129.85,665.73V564.05c-.05-.58-.08-1.17.4-1.21H6.4v42.79H22.05c.92-3,.15-7.75.41-11.49H85.85v77.79c0,9,.79,17.68-1.22,24.29a30,30,0,0,1-25.94,21c-15.21,1.48-31.62,0-47.36,0H-129.85V681.38H21.64c.95-9.45.14-20.7.41-30.87-4.25-1-10.28-.14-15.25-.39-.94,4.41-.15,10.56-.4,15.61ZM22.46,584.64c.27-7.14-.55-15.37.41-21.8h63v21.8Z" transform="translate(129.88 -549.46)"/></svg>